# xmcd CD Database Entry
#
# Track frame offsets:
# 150
# 7589
# 25933
# 44228
# 51402
# 72853
# 91350
# 108176
# 112846
# 132778
# 150391
# 169195
# 186449
# 202519
# 223284
# 242509
# 248318
# 268167
# 274854
# 291533
# 308693
#
# Disc length: 4318 seconds
#
# Revision: 3
# Processed by: cddbd v1.4PL0 Copyright (c) Steve Scherf et al.
# Submitted via: tcd 2.0b
#
DISCID=2310dc15
DTITLE=Lil Wayne  - 500 Degreez
DYEAR=1900
DGENRE=
TTITLE0=Fly Talkin'
TTITLE1=Look at Me
TTITLE2=Ol Life feat. Big Tymers and TQ
TTITLE3=BigTigger Live on the Radio
TTITLE4=Gangsta and Pimps
TTITLE5=Lovely
TTITLE6=Gangsta Shit feat. Petey Pablo
TTITLE7=Big Tigger Live on the Radio
TTITLE8=Bloodline
TTITLE9=Where You At
TTITLE10=Worry Me
TTITLE11=500 Degreez
TTITLE12=Go Hard
TTITLE13=Young'n Blues
TTITLE14=Believe That feat. Blaque and Mannie Fresh
TTITLE15=Rob Nice Live on The Radio
TTITLE16=Fuck You feat. Big Tymers
TTITLE17=What Does Life Mean to Me feat. TQ and Big Tymers
TTITLE18=Get That Dough feat. Baby Tateeze and Cristale
TTITLE19=Fo Sheezy
TTITLE20=Fly Talkin' Go Home
EXTD=
EXTT0=
EXTT1=
EXTT2=
EXTT3=
EXTT4=
EXTT5=
EXTT6=
EXTT7=
EXTT8=
EXTT9=
EXTT10=
EXTT11=
EXTT12=
EXTT13=
EXTT14=
EXTT15=
EXTT16=
EXTT17=
EXTT18=
EXTT19=
EXTT20=
PLAYORDER=
